<svg id="Layer_1" data-name="Layer 1" xmlns="http://www.w3.org/2000/svg" viewBox="0 0 555.7 83.5"><defs><style>.cls-1{fill:#283b84;}</style></defs><path class="cls-1" d="M328.1,209.5c-.3.1-.5.4-.8.4H301c-.2,0-.4-.3-.8-.6a5.3,5.3,0,0,1,1.6-.9,7,7,0,0,0,5.1-4.3,5.4,5.4,0,0,0,.5-2.1V173.7c0-.5-.2-1.1-.2-1.7h-.4a2.8,2.8,0,0,0-.7.9c-.9,2.9-1.7,5.8-2.6,8.7s-1.5,5.1-2.3,7.6-2,6-2.9,9-1.5,4.9-2.2,7.4-.7,2.4-1.2,3.6a1.6,1.6,0,0,1-1.2.7H281.8c-1,0-1.4-.5-1.7-1.4-1.2-4.1-2.5-8.1-3.8-12.2s-2.1-6.6-3.1-10l-2.7-8.5-1.4-4.7-.6-1.3c-.9.4-.7,1.1-.7,1.7-.1,2.3,0,4.6,0,7,0,6.9-.1,13.7,0,20.6a7.1,7.1,0,0,0,3.6,6.4,9.7,9.7,0,0,0,2.4.8c.9.2,1,.7.8,1.5H258.9c-.7,0-1.7.4-1.9-.6s.9-.9,1.6-1.1a6.9,6.9,0,0,0,5.3-6.8c0-12.6,0-25.2.1-37.7,0-2.6-2.4-6-5-6.5l-1.6-.5a1,1,0,0,1-.4-.8,1.7,1.7,0,0,1,.6-.6,5.6,5.6,0,0,1,1.3,0q11.9-.2,23.7,0c.7,0,1.5-.3,2,.9l-1.6.7c-2.8,1.1-4.1,3.1-3.3,6.1s1.7,5.8,2.5,8.8l3.9,12.3,4.7,14.3c.3,1.1.6,2.3,1,3.5a5.6,5.6,0,0,0,.7,1.3,2.6,2.6,0,0,0,.7-1c1.4-4.3,2.6-8.6,3.9-12.9s3.3-10,4.9-15l2.1-6.8c.4-1.4.9-2.8,1.3-4.2.7-3-.4-5-3.3-6.3a14,14,0,0,1-1.7-.9c.5-1.1,1.3-.8,2-.8,3.7-.1,7.3,0,11,0s8.5-.1,12.7,0c.7,0,1.5-.3,2,.6s-1.3,1-2.1,1.2a7,7,0,0,0-4.7,5,5.3,5.3,0,0,0-.1,1.8c-.1,12.5,0,25-.1,37.5a7.5,7.5,0,0,0,5.4,6.9,12.2,12.2,0,0,1,1.7.7Z" transform="translate(-257 -144.6)"/><path class="cls-1" d="M519.1,209a6.9,6.9,0,0,1,1.5-.7c2.8-.4,5.5-3.5,5.5-6.7V173.3c0-.3-.1-.6-.1-1.1a4.8,4.8,0,0,0-1.6,2.3c-.7,2.3-1.4,4.7-2.2,7l-2.4,8c-1,3.1-1.9,6.1-2.8,9.1l-2.4,7.1c-.3,1-.5,1.9-.8,2.8s-.7,1.4-1.7,1.4H499.9l-.6-.3c-4-12.1-7.8-24.6-11.8-37.2a3.5,3.5,0,0,0-1,2.9c0,3.5.1,7,.1,10.5s-.1,9.7,0,14.5a11,11,0,0,0,.7,4.1,6.5,6.5,0,0,0,4.7,3.8.1.1,0,0,0,.1.1c.7.1,1.4.2,1.3,1s-.8.6-1.4.6H477.1l-1.4-.3a1.2,1.2,0,0,1,1.2-1.3c3.6-.4,5.8-4.4,5.8-7.3-.1-12.3-.1-24.6,0-36.8a6.9,6.9,0,0,0-5.3-7c-.6-.2-1.1-.7-2-1.1a5.1,5.1,0,0,1,1.3-.8,2.7,2.7,0,0,1,.9,0c7.9,0,15.8-.1,23.8,0a3.4,3.4,0,0,1,1,0,.9.9,0,0,1,.6.7,1.3,1.3,0,0,1-.4.7,1.3,1.3,0,0,1-.9.2,5.1,5.1,0,0,0-3.4,6.6c1.2,3.4,2.3,6.9,3.4,10.4s1.6,5.4,2.5,8,1.7,5.4,2.5,8.1,1.5,5,2.3,7.5l1.6,4.9c1.1.1,1.3-.6,1.5-1.2l4.5-14.4c.7-2.4,1.6-4.8,2.4-7.2s1.6-5.2,2.3-7.7,1.1-3.3,1.6-4.9a34.1,34.1,0,0,0,1.3-5.3c.3-2-1-3.7-3-4.5l-2.4-1.1,1.3-.8a2.7,2.7,0,0,1,.9,0c7.9,0,15.7-.1,23.6,0a5.7,5.7,0,0,1,1.3,0c.2.1.5.4.5.6s-.2.6-.4.8l-.6.2c-4.3,1.3-5.7,3.9-5.8,7.9v35.4c0,2.6.6,5,2.8,6.6a13.8,13.8,0,0,0,2.7,1.4l1.2.5a.6.6,0,0,1-.4,1.1H521.1l-1.9-.2Z" transform="translate(-257 -144.6)"/><path class="cls-1" d="M732.9,172.2a11.4,11.4,0,0,0,2.3,1.3,12,12,0,0,1,6.6,6.3,11.7,11.7,0,0,1-.1,10.9,13.1,13.1,0,0,1-7.4,6.7,20.3,20.3,0,0,1-5.9,1.4,55.6,55.6,0,0,1-7.1-.2,3.9,3.9,0,0,0-3.1,1.8c-1.3,1.8-1,2.9,1,4a4.3,4.3,0,0,0,1.6.5c3,.3,6.1.4,9.1.6s5.2.2,7.7.6a10.4,10.4,0,0,1,7.1,4.2,9.6,9.6,0,0,1,1.4,4.7c.1,3.7-1.6,6.5-4.5,8.7s-6.2,3.2-9.6,3.9a45.8,45.8,0,0,1-12.8.2,16.3,16.3,0,0,1-8.1-2.7c-3.4-2.3-3.7-4.9-2.9-8s5.2-4.1,7.5-1.9a3.6,3.6,0,0,1,1,4.6c-1.8,3.2.6,5.7,3.5,6.4a19.3,19.3,0,0,0,7.6.5c3.6-.6,6.9-1.8,9.1-4.9a4.4,4.4,0,0,0,.9-4c-.6-2-2.2-2.8-4.1-3.1l-5.3-.4c-3.3-.1-6.6-.1-9.9-.4a15.4,15.4,0,0,1-7.2-2.4c-2.6-1.7-2.7-5.6-1.5-7.5a18.7,18.7,0,0,1,5-5.1l1.8-1.5-1.3-.9a12.9,12.9,0,0,1-5.9-6.9,11.3,11.3,0,0,1-.5-6.3c1.1-5.9,4.8-9.2,10.4-10.8a19.7,19.7,0,0,1,9-.7,5.3,5.3,0,0,0,4.5-1.4,16,16,0,0,1,7.6-4,10.8,10.8,0,0,1,3.1-.2,5,5,0,0,1,4.7,3.6c.5,1.3-.4,3.4-1.9,4.4a3.9,3.9,0,0,1-4.3-.2,3.1,3.1,0,0,1-1.3-1.5c-1.1-2.3-3.6-3.2-6.4-1.4A7.9,7.9,0,0,0,732.9,172.2Zm-1.4,13.2h-.3a14.7,14.7,0,0,0,0-2.1,13,13,0,0,0-1.9-6.6,3.9,3.9,0,0,0-5.6-1.2,5.3,5.3,0,0,0-2.6,4c-.2,2.7-.4,5.5-.4,8.2a10.7,10.7,0,0,0,1.5,5.8,4.4,4.4,0,0,0,4.9,2,4.7,4.7,0,0,0,3.2-3.5C730.9,189.9,731.1,187.6,731.5,185.4Z" transform="translate(-257 -144.6)"/><path class="cls-1" d="M383,197.4a32.9,32.9,0,0,1-3.9-2.8,12.2,12.2,0,0,1-4.1-8.7c-.2-5.9,2.7-9.8,7.8-12.3a20.8,20.8,0,0,1,11.8-1.9,4.7,4.7,0,0,0,4.3-1.2,15.5,15.5,0,0,1,7.9-4.1,16.1,16.1,0,0,1,3.8-.1,4.4,4.4,0,0,1,3.7,3.3,4,4,0,0,1-1.5,4.4,3.5,3.5,0,0,1-4.8-.3,13,13,0,0,1-1.5-1.8c-1.3-1.8-2.6-2.2-4.6-1.5a7.9,7.9,0,0,0-2.8,1.8l2.2,1.2c2.5,1.2,4.8,2.7,6.2,5.3a13,13,0,0,1,1.7,5.8,12.6,12.6,0,0,1-2.1,7.8,13.2,13.2,0,0,1-4.8,4.3,17.5,17.5,0,0,1-9.3,2.2l-5.3-.2a5.5,5.5,0,0,0-1.7.5c-.3.1-.5.4-.7.6s-1.9,1.6-1.4,3a3.5,3.5,0,0,0,3.3,2.2l9.3.6c2.5.2,5,.2,7.3.6s6.5,2.1,7.9,5.6a15.4,15.4,0,0,1,.5,3.1c.4,3.3-1,6-3.4,8.3a20.8,20.8,0,0,1-7.4,3.8c-4.3,1.2-8.6,1.2-13,1.1a26.1,26.1,0,0,1-9.2-1.9,7.5,7.5,0,0,1-5.1-6.8,5.1,5.1,0,0,1,6.9-5.1,4.3,4.3,0,0,1,2.2,5.1,13.6,13.6,0,0,0-.6,2.9,3.1,3.1,0,0,0,1.6,2.9,8.5,8.5,0,0,0,4.1,1.5c3.6.5,7.3.4,10.7-1.4a10.7,10.7,0,0,0,4.9-4.5,3.8,3.8,0,0,0-2.6-5.6,18.4,18.4,0,0,0-4.7-.7c-3.9-.3-7.9-.2-11.9-.5a14.7,14.7,0,0,1-7-2.4,5.5,5.5,0,0,1-1.9-6.9,14.2,14.2,0,0,1,5.1-5.5Zm3.6-12.5c.4,2.4.7,4.8,1.3,7.2a4.7,4.7,0,0,0,4.1,3.6c1.7.2,3.4-1,4.4-3.1a8.4,8.4,0,0,0,.8-3.8c0-1,.1-2,.2-3,0-2.9,0-5.8-1.3-8.6a4.3,4.3,0,0,0-5.4-2.1,4.6,4.6,0,0,0-2.9,3.3C387.3,180.5,387,182.7,386.6,184.9Z" transform="translate(-257 -144.6)"/><path class="cls-1" d="M589.8,203.2a3.7,3.7,0,0,1,.1,1.4c-2.6,6.6-11.3,8.3-15.8,3.9a13.4,13.4,0,0,1-2.1-3c-.6-1-.9-1.1-1.8-.3a29.1,29.1,0,0,1-3.7,3.3,12.6,12.6,0,0,1-12.7,1.2c-2.9-1.2-4.2-3.7-4.5-6.8-.4-5,2-7.9,6.8-10a78.9,78.9,0,0,1,8.6-2.9,30.7,30.7,0,0,1,4.2-.7l2.1-.7c0-2.7.3-5.3-.1-7.8s-2.7-5.2-6.1-6.1-4.8,1-5.4,2.8a5,5,0,0,0-.1,2.1,3.9,3.9,0,0,0,.6,1.9c1,1.9.1,3.4-1.1,4.7s-2.9,1.4-4.7.8-4-4.7-2.9-7.3,4.7-5.8,8.5-7a21.1,21.1,0,0,1,10-.8,18,18,0,0,1,8.2,2.9c3.2,2.2,4.6,5.3,5.1,9.1s.2,10.1.3,15.2c.1,1.2.2,2.4.4,3.5.8,2.9,3.1,3.3,5,1.5Zm-18.7-6.5h.1c0-1.3,0-2.7-.1-4s-.6-1.5-1.4-1.1c-2.3,1.3-4.8,2.3-6.8,4.3s-2,3.9-1.2,6.2,3.6,3.8,5.9,2.3c.8-.6,1.7-1.1,2.5-1.8a2.2,2.2,0,0,0,1-2.2Z" transform="translate(-257 -144.6)"/><path class="cls-1" d="M704.9,202.9c-.4,4.2-2.9,6.5-6.6,7.6a10,10,0,0,1-7.2-.5c-2.3-1.1-3.4-3.3-4.7-5.6l-1.6,1.5a45.9,45.9,0,0,1-4.4,3.3,12.5,12.5,0,0,1-10.2,1,7.2,7.2,0,0,1-5.1-4.3c-1.5-4.1-1.4-7.6,2.5-10.9a14.9,14.9,0,0,1,5.8-3.1q3.1-1.1,6.3-1.8l4.6-1c2-.5,2-.5,2-2.6a41.7,41.7,0,0,0-.4-6.1c-.8-3.9-5.6-7.5-10.2-4.7a3.5,3.5,0,0,0-1.4,3.7,20.2,20.2,0,0,0,.7,2.3,4.4,4.4,0,0,1-1.3,4.6c-1.6,1.3-3.4,1.6-5,.5-3.1-2-4.1-4.9-1.6-8.9a12.7,12.7,0,0,1,4.8-4.1,21,21,0,0,1,13-1.9c3.9.6,7.7,1.8,10.3,5.1a13.3,13.3,0,0,1,2.7,6.7c.6,5.1.1,10.3.4,15.4a13.9,13.9,0,0,0,.6,4c.7,2.2,2.8,2.8,4.6,1.2Zm-18.6-6.1v-3.7c-.1-1.6-.6-2-1.9-1.3a22,22,0,0,0-6.2,3.8,5.3,5.3,0,0,0-1.6,6.3c.9,2.4,4,3.9,6,2.5l2.6-1.8a2.6,2.6,0,0,0,1.1-2.5C686.2,199,686.3,197.9,686.3,196.8Z" transform="translate(-257 -144.6)"/><path class="cls-1" d="M371.4,202.7c-.6,2.7-1.5,5.2-4.1,6.7s-6.7,2.3-10,.5a17.6,17.6,0,0,1-3.4-3.3,2,2,0,0,1-.4-.8c-.7-1.3-1.1-1.2-2.2-.3a28,28,0,0,1-4.7,3.8c-4.3,2.2-8.7,2.3-12.9-.5a7.2,7.2,0,0,1-3.1-5.9c-.1-1.9-.1-3.8,1.1-5.5a13.3,13.3,0,0,1,5.6-4.6,43.6,43.6,0,0,1,10.7-3c1.2-.2,2.4-.7,3.7-1s1-.5.9-1.2c-.1-2.6.3-5.2-.6-7.8s-3.2-4.4-5.9-5.1-4.2.8-5.1,2a3.7,3.7,0,0,0-.2,3.9,5.5,5.5,0,0,1,.6,2.8,4.4,4.4,0,0,1-5.6,3.9,5.4,5.4,0,0,1-3.6-6.3,8.7,8.7,0,0,1,4.2-6.1,18.2,18.2,0,0,1,10.1-3.1,22.2,22.2,0,0,1,8.1.9c5.2,1.6,8.7,4.9,9.6,10.4a27.1,27.1,0,0,1,.4,4v13.1a7,7,0,0,0,.9,3.5,2.5,2.5,0,0,0,4.1.8A15.3,15.3,0,0,0,371.4,202.7Zm-18.8-5.9c0-1.2.1-2.4,0-3.7s-.6-2-2.1-1.2a31,31,0,0,0-4.7,2.6,10.7,10.7,0,0,0-2.5,2.7,5,5,0,0,0,.6,6.3c1.1,1,2.4,1.9,4,1.3a20.2,20.2,0,0,0,3.2-1.8,3.5,3.5,0,0,0,1.6-3.5A12.2,12.2,0,0,1,352.6,196.8Z" transform="translate(-257 -144.6)"/><path class="cls-1" d="M609.6,171.4a23.9,23.9,0,0,1,7.9,1.4,10.8,10.8,0,0,1,4.3,3,6.5,6.5,0,0,1,0,8,4.4,4.4,0,0,1-4.7,1c-1.2-.4-2.6-2.1-2.5-3.3a15.3,15.3,0,0,1,.7-2.9,2.3,2.3,0,0,0-1.3-3l-1.5-.6a11.4,11.4,0,0,0-8.3,1.6,4.9,4.9,0,0,0-1.6,1.9,2.4,2.4,0,0,0,.9,3.3,13.5,13.5,0,0,0,3.4,1.7l9.1,3.4a13.5,13.5,0,0,1,7.3,5.8c2.9,5.3,2,11.2-3,14.8a20.4,20.4,0,0,1-9.3,3.6,22.1,22.1,0,0,1-8.5-.5c-3.2-.8-6.1-2.3-7.8-5.3a6.6,6.6,0,0,1-.8-6.1,4.2,4.2,0,0,1,4-3c2.5.1,4.6,1.9,4.1,4.7a4.9,4.9,0,0,1-.6,1.7c-.6,1.7-.2,3.3,1.4,4,3.9,1.8,7.7,1.9,11.3-.7a3.8,3.8,0,0,0,.6-6.2c-1.6-1.6-3.8-2.3-5.8-3s-6.8-2.1-9.9-3.9-5.5-6.8-5-10.7,1.8-6,4.6-7.8a14.4,14.4,0,0,1,6.9-2.5Z" transform="translate(-257 -144.6)"/><path class="cls-1" d="M646.1,174.9a9.4,9.4,0,0,0-6.7,1.9c-2.1,1.6-2,4.2.3,5.4a45.5,45.5,0,0,0,6.4,2.7c2,.8,4.1,1.4,6.2,2.3,5.6,2.3,8.8,7.1,8,13.5-.4,3-2.3,5.2-4.6,6.9a18.9,18.9,0,0,1-9.5,3.5,23.5,23.5,0,0,1-6.5-.1,13.8,13.8,0,0,1-9.1-5.1,7.4,7.4,0,0,1-1.3-6.4,4.4,4.4,0,0,1,6.9-2.3c1.4,1.1,1.4,2.6,1.2,4.2l-.4,1.2c-.7,2-.1,3.4,1.7,4.2a11.2,11.2,0,0,0,9.8-.1,4.9,4.9,0,0,0,1.8-1.4c1.8-2.1,1.7-3.6,0-5.5s-3.7-2.3-5.7-3.1-4.2-1.2-6.3-2-5.6-2.6-7.3-5.5a9.1,9.1,0,0,1-1.4-4.5,14.7,14.7,0,0,1,.4-5.1,11,11,0,0,1,4.8-5.8,15.5,15.5,0,0,1,6.4-2,26.2,26.2,0,0,1,7.9,0,13.1,13.1,0,0,1,8.3,4.2c1.5,1.7,1.7,6.3-.2,7.9a4.6,4.6,0,0,1-5.1.7,3.8,3.8,0,0,1-1.7-4.6l.2-.3c1.1-3.3-.5-4.3-3.4-4.8Z" transform="translate(-257 -144.6)"/><path class="cls-1" d="M782.5,199.6c0,.4.1.8-.1,1.1-3.3,6-7.9,10-15.1,10s-13.6-3.7-17.1-10.8a18.3,18.3,0,0,1-1.7-8,19.5,19.5,0,0,1,3-11.1c3.6-5.6,8.6-9,15.5-9a17.8,17.8,0,0,1,6.5.7,16.4,16.4,0,0,1,9.4,9.4c.7,1.9.7,3.9,1.1,5.8s-.3,1.8-1.6,1.8H761.9c-1.1.1-1.4.3-1.4,1.4a11,11,0,0,0,.4,3.1,15.9,15.9,0,0,0,3.9,7.9c2.7,2.5,5.9,3.1,9.4,2.6a10.1,10.1,0,0,0,7.9-5Zm-15.3-12.7h5.5c1.3-.1,1.7-.4,1.6-1.7a18.4,18.4,0,0,0-1.7-6.5c-1-2-2.6-3.6-4.9-3.7s-4.2,1.4-5.3,3.6a18,18,0,0,0-1.8,6.4c-.2,1.6.1,1.9,1.7,1.9Z" transform="translate(-257 -144.6)"/><path class="cls-1" d="M472,199.5c-1.9,5.2-5.3,8.8-10.6,10.5a18.4,18.4,0,0,1-9.6.1,16.3,16.3,0,0,1-5.7-2.5,18.1,18.1,0,0,1-6.5-7.7,20.5,20.5,0,0,1-1-13.8,19.4,19.4,0,0,1,19.5-14.3,24.9,24.9,0,0,1,7.7.8c2.7.9,5.1,2.2,6.5,4.7s1.5,6.4-1.4,8.6a4.4,4.4,0,0,1-6.2-6.1,3.4,3.4,0,0,0,.6-2,2.3,2.3,0,0,0-1.6-2.4,8.7,8.7,0,0,0-8.6,1.7,12.9,12.9,0,0,0-4.8,8.6,25.3,25.3,0,0,0,.2,9.1c1.2,4.7,3.7,8.5,9,9.6a13,13,0,0,0,3.4.2c3-.4,5.8-1.3,7.7-3.8A8.6,8.6,0,0,1,472,199.5Z" transform="translate(-257 -144.6)"/><path class="cls-1" d="M435.6,209.4l-1.3.5c-3.3.3-16.6,0-17.8-.4s.2-1.1.9-1.3,2.3-2,2.3-3.9V179.9c0-2-.4-3.4-2.5-3.9-.3-.1-.5-.6-.8-.9s.7-.6,1-.7l3.8-.7,8.9-1.3c1.1-.2,1.4,0,1.5,1.1a5.7,5.7,0,0,1,0,1.3v29.5a4,4,0,0,0,2.5,3.9A7.1,7.1,0,0,1,435.6,209.4Z" transform="translate(-257 -144.6)"/><path class="cls-1" d="M793.1,177.7c.4-5.1-3.5-11.3-8.8-13.3a20.5,20.5,0,0,0-5.9-1.1,7.7,7.7,0,0,1-1.5-.2,1,1,0,0,1-.6-.7,1,1,0,0,1,.6-.8h1.6c6.2-.1,11-2.6,13.9-8.2a11.8,11.8,0,0,0,1.4-5.8,12.7,12.7,0,0,1,.1-2c.1-.4.5-.6.8-.9s.6.5.7.8a7.6,7.6,0,0,1,.1,1.5c-.3,6.7,5.3,12.8,10.6,14a26.3,26.3,0,0,0,4.9.6h.9c.6,0,1,.4.8.9s-.5.8-.8.8-2.7.2-4,.3a12.5,12.5,0,0,0-6.5,2.6,14.1,14.1,0,0,0-5.4,7.5,20.9,20.9,0,0,0-.4,5.6c0,1.2,0,1.5-.9,1.6s-1.5-.2-1.6-1.4v-1.7Z" transform="translate(-257 -144.6)"/><path class="cls-1" d="M425.5,149.5c.7-.3.8,0,.9.5a8.7,8.7,0,0,0,.6,3.2c1.2,2.6,3.6,3.8,6.4,4.2l1.2.2a3.4,3.4,0,0,1-2.2.7,6.9,6.9,0,0,0-5.9,5.8l-.3,2.2a3.6,3.6,0,0,1-.4.9c-.8-.2-.8-.8-.7-1.4a7.1,7.1,0,0,0-6.8-7.5l-1.6-.2-.8-.5C421.6,157.4,425.3,155.3,425.5,149.5Z" transform="translate(-257 -144.6)"/></svg>